# xmcd
# 
# Track frame offsets:
#     150
#     22974
#     50527
#     72607
#     95949
#     116656
#     148547
#     172708
#     197636
#     226357
#     253087
# 
# Disc length: 3735
# 
# Revision: 1
# Processed by: cddbd v1.5.2PL0 Copyright (c) Steve Scherf et al.
# Submitted via: fre:ac v1.0.31
# 
DISCID=9b0e950b
DTITLE=Yellowjackets - Timeline
DYEAR=2011
DGENRE=Jazz
TTITLE0=Why is It
TTITLE1=Tenacity
TTITLE2=Rosemary
TTITLE3=Timeline
TTITLE4=Magnolia
TTITLE5=A Single Step
TTITLE6=Indivisible
TTITLE7=Like Elvin
TTITLE8=My Soliloquy
TTITLE9=Numerology
TTITLE10=I Do
EXTD=YEAR: 2011
EXTT0=
EXTT1=
EXTT2=
EXTT3=
EXTT4=
EXTT5=
EXTT6=
EXTT7=
EXTT8=
EXTT9=
EXTT10=
PLAYORDER=
